<svg width="125" height="125" viewBox="0 0 125 125" fill="none" xmlns="http://www.w3.org/2000/svg">
<rect x="6.10352e-05" width="125" height="125" rx="15" fill="#22C55E"/>
<path d="M66.3415 9.10826C64.5492 9.97102 62.7042 10.8739 61.4296 12.2722C58.4094 16.1656 55.7736 20.4628 55.0548 25.0985C54.7108 27.3995 54.4489 29.7895 53.1443 31.8782C51.8773 33.8991 49.8506 35.5591 47.476 36.6705C47.0074 36.7014 47.3814 37.0844 47.5222 37.252C50.2222 41.1823 52.8905 45.1329 55.2619 49.2111C58.5749 54.8313 61.5451 60.6112 63.731 66.6108C64.7796 69.5325 65.6465 72.5107 66.1044 75.54C66.4441 77.6655 66.4954 79.8152 66.3661 81.9551C66.3371 83.2999 66.1981 84.7323 65.2328 85.8633C64.1124 87.3598 62.4479 88.4878 61.1415 89.8603C60.0751 90.7183 58.4876 90.79 57.0903 90.7311C53.1517 90.4952 49.3944 89.3771 45.7335 88.2106C45.2282 88.0427 44.7265 87.8671 44.2248 87.6917C47.2438 91.5182 49.9311 93.697 52.8992 95.4429C57.9943 98.4399 63.6975 98.568 71.7475 92.0591C73.1701 90.4348 74.4726 88.7346 75.6477 86.9775C76.9505 85.0424 77.9358 82.9353 78.2747 80.723C78.9 77.486 78.9495 74.1924 78.7881 70.9227C78.6515 68.3815 78.329 65.8469 77.8629 63.3348C77.8199 62.9488 78.3457 62.8132 78.5516 62.5238C79.0428 62.0372 79.1205 61.3743 79.3515 60.7875C79.6469 59.7103 79.7952 58.5897 79.658 57.4883C79.3462 56.4296 78.3933 55.4717 78.6178 54.3275C78.7726 53.4401 79.1949 52.5023 78.7509 51.6262C78.4802 50.437 77.7119 49.3769 77.3867 48.203C77.2161 47.0418 77.8417 45.8278 77.2384 44.7096C76.611 43.3257 75.5071 42.0324 75.51 40.4988C75.4824 39.2817 75.7475 37.9841 75.042 36.8574C74.6345 36.0565 73.9677 35.2849 72.9605 34.968C71.7443 34.4902 70.2261 34.3555 69.3617 33.4043C68.4331 32.3168 67.997 31.0084 67.5197 29.7508C65.3008 24.1063 65.4732 18.3 66.4914 12.517C66.7847 11.165 67.1763 9.82933 67.6139 8.50512L66.3409 9.108L66.3409 9.108L66.3415 9.10826ZM52.6297 35.8126C54.2367 35.7586 55.6451 37.1225 55.3489 38.4451C55.1533 39.6033 53.7601 40.5369 52.3574 40.3723C50.8824 40.2468 49.6685 38.9825 49.9527 37.7458C50.1349 36.6681 51.3287 35.8073 52.6297 35.8126L52.6297 35.8126ZM71.5156 36.7081C73.1038 36.5963 74.5508 37.834 74.477 39.1495C74.4756 40.4239 73.0571 41.6047 71.5083 41.4613C69.8739 41.365 68.6121 39.8886 69.0118 38.5618C69.2553 37.5798 70.3038 36.7686 71.5156 36.7081V36.7081ZM73.0943 43.1568C74.6848 43.1013 76.2127 44.3163 76.0497 45.6716C75.9534 47.0034 74.3659 48.1035 72.7798 47.9017C71.4203 47.7921 70.206 46.8049 70.1888 45.641C70.1261 44.4238 71.3273 43.2841 72.7792 43.1796C72.8833 43.1673 72.9894 43.1653 73.0942 43.1568L73.0942 43.1569L73.0943 43.1568ZM73.9735 49.6455C75.596 49.4201 77.1699 50.6656 77.1245 52.0157C77.1977 53.3646 75.5944 54.6177 73.979 54.362C72.4576 54.181 71.3168 52.8339 71.6378 51.5723C71.8468 50.6151 72.7962 49.7656 73.9735 49.6454L73.9735 49.6455ZM75.29 56.5546C76.9662 56.4339 78.4651 57.8286 78.2317 59.2068C78.1189 60.5055 76.4955 61.5831 74.9543 61.266C73.4902 61.0266 72.4595 59.7008 72.7717 58.4834C72.9884 57.4774 74.0459 56.6089 75.2899 56.5548L75.29 56.5546Z" fill="white" stroke="#FBFBFB" stroke-opacity="0.013216" stroke-width="0.35314"/>
<path d="M67.5225 8.68597L66.361 9.23281C64.5684 10.0956 62.7227 10.9996 61.4476 12.3978C58.427 16.2913 55.7904 20.5875 55.0716 25.2236C54.7275 27.5247 54.4638 29.9099 53.1591 31.999C51.892 34.0199 49.8681 35.6846 47.4933 36.7957C47.0246 36.8266 47.399 37.204 47.5397 37.3715C50.24 41.3018 52.9044 45.2521 55.2761 49.3304C58.5894 54.9507 61.5621 60.7314 63.7482 66.7311C64.797 69.6529 65.665 72.6307 66.1229 75.6601C66.4626 77.7857 66.5148 79.9414 66.3855 82.0813C66.3565 83.4261 66.2166 84.8584 65.2512 85.9894C64.1307 87.486 62.4628 88.6099 61.1564 89.9824C60.4632 90.5401 59.5551 90.7696 58.6169 90.843L58.7087 90.8795C60.7503 91.8091 63.0802 90.8363 65.0776 89.8412C66.9939 88.8866 69.2239 85.7708 69.2239 85.7708C71.59 82.6194 71.3669 78.4527 71.2244 74.7347C70.9582 67.9102 66.0106 54.7175 66.0106 54.7175C66.0106 54.7175 62.1777 44.9784 61.1849 39.9402C60.1454 34.6653 58.7535 29.1664 60.0407 23.9297C60.0407 23.9297 60.7419 17.8347 62.2123 15.0895C63.3395 12.9847 66.6829 9.84094 67.4673 9.11709C67.5087 8.98795 67.5566 8.86161 67.599 8.73272L67.5167 8.68623L67.5225 8.68597ZM52.4096 35.9425C52.4899 35.9362 52.5663 35.9374 52.6476 35.9378C54.2548 35.8838 55.6586 37.2465 55.3623 38.5691C55.1667 39.7274 53.7755 40.6621 52.3728 40.4975C50.8976 40.372 49.6891 39.1089 49.9734 37.8721C50.1442 36.8617 51.2056 36.0367 52.4096 35.9425L52.4096 35.9425Z" fill="url(#paint0_linear_2_5)" stroke="#FBFBFB" stroke-opacity="0.013216" stroke-width="0.35314"/>
<path d="M58.151 93.7121L62.2237 93.4984C62.2237 93.4984 68.8657 104.425 66.654 108.704C65.1211 111.669 59.9664 112.188 57.6896 109.565C54.3552 105.724 58.1512 93.7121 58.1512 93.7121L58.151 93.7121Z" fill="white" stroke="#FBFBFB" stroke-opacity="0.013216" stroke-width="1.0066"/>
<path d="M56.7537 106.264L62.4901 103.907L68.1149 106.264C68.1149 106.264 69.8161 109.986 68.1929 110.863C66.6907 111.674 62.9668 109.39 62.9668 109.39C62.9668 109.39 58.5802 111.842 56.8317 110.864C55.2082 109.955 56.7537 106.264 56.7537 106.264V106.264Z" fill="#D4AA00" stroke="#FBFBFB" stroke-opacity="0.013216" stroke-width="0.252513"/>
<path d="M76.6059 109.439L47.5851 109.438L47.6036 110.524L76.6244 110.525L76.6059 109.439Z" fill="#D4AA00" stroke="#FBFBFB" stroke-opacity="0.013216" stroke-width="0.962237"/>
<path d="M56.1908 109.796C60.0328 108.507 64.2598 108.656 68.7516 109.796L68.9122 119.273L62.2739 118.362L56.3515 119.274L56.1908 109.796Z" fill="#D4AA00" stroke="#FBFBFB" stroke-opacity="0.013216" stroke-width="0.906167"/>
<defs>
<linearGradient id="paint0_linear_2_5" x1="10.2044" y1="64.1955" x2="106.456" y2="48.4947" gradientUnits="userSpaceOnUse">
<stop stop-color="#DBC3C3"/>
<stop offset="1" stop-color="#CCCCCC" stop-opacity="0"/>
</linearGradient>
</defs>
</svg>
